# xmcd CD database file
#
# Track frame offsets:
#	150
#	9636
#	32413
#	50444
#	69116
#	84804
#	104593
#	124174
#	145952
#	164950
#	186623
#	198996
#	216382
#	234763
#	256250
#	273604
#
# Disc length: 3882 seconds
#
# Revision: 8
# Processed by: cddbd v1.5.2PL0 Copyright (c) Steve Scherf et al.
# Submitted via: CDex 1.51
#
DISCID=e80f2810
DTITLE=Willy DeVille - In Berlin CD1
DYEAR=2002
DGENRE=R&B
TTITLE0=St. Peter's Street
TTITLE1=Betty and Dupree
TTITLE2=It's Too Late She's Gone
TTITLE3=Spanish Harlem
TTITLE4=Trouble in Mind
TTITLE5=Storybook Love
TTITLE6=Big Blue Diamond
TTITLE7=Shake Sugaree
TTITLE8=Let It Be Me
TTITLE9=That Is the Way to Make a Broken Heart
TTITLE10=Hound Dog
TTITLE11=Junker's Blues
TTITLE12=You Better Move On
TTITLE13=Night Falls
TTITLE14=I Met You Baby
TTITLE15=Heaven Stood Still
EXTD=YEAR: 2002
EXTT0=
EXTT1=
EXTT2=
EXTT3=
EXTT4=
EXTT5=
EXTT6=
EXTT7=
EXTT8=
EXTT9=
EXTT10=
EXTT11=
EXTT12=
EXTT13=
EXTT14=
EXTT15=
PLAYORDER=
